# xmcd
#
# Track frame offsets: 
#        150
#        9377
#        19882
#        31377
#        41515
#        50860
#        61002
#        70765
#        79940
#        88637
#        99667
#        109840
#        118307
#        128805
#        139175
#        149002
#        158787
#        169150
#        179590
#        189192
#        200040
#        210280
#        222147
#        231310
#        242380
#        252260
#        262682
#        275402
#        286590
#
# Disc length: 3963 seconds
#
# Revision: 0
# Processed by: cddbd v1.5.1PL0 Copyright (c) Steve Scherf et al.
# Submitted via: ExactAudioCopy v0.95a4
#
DISCID=a10f791d
DTITLE=Melvin Endsley - I Like Your Kind Of Love
DYEAR=1900
DGENRE=Country
TTITLE0=I Like Your Kind Of Love
TTITLE1=I Ain't Gettin' Nowhere With You
TTITLE2=Is It True
TTITLE3=Keep A-Lovin' Me Baby
TTITLE4=I Got A Feelin'
TTITLE5=Hungry Eyes
TTITLE6=Lovin' On My Mind
TTITLE7=Getting Used To The Blues
TTITLE8=Let's Fall Out Of Love
TTITLE9=I'd Just Be Fool Enough
TTITLE10=Just Wanted To Be Wanted
TTITLE11=Gettin' Used To The Blues
TTITLE12=There's Bound To Be
TTITLE13=Lonely All Over Again
TTITLE14=Bringin' The Blues To My Door
TTITLE15=Ain't It Fine!
TTITLE16=Oh, Yeah Baby
TTITLE17=Let Me Sing The Blues (Just One More Time)
TTITLE18=I'll Get Even With You
TTITLE19=I Can't Go Anywhere
TTITLE20=Can I Say Something
TTITLE21=The Search
TTITLE22=Here I Am
TTITLE23=You Make It Sound So Easy
TTITLE24=For My Baby
TTITLE25=I Wish I Knew
TTITLE26=How Lonely Can You Get
TTITLE27=Everytime I See The Sun Go Down
TTITLE28=Started Out A-Walkin'
EXTD=
EXTT0=
EXTT1=
EXTT2=
EXTT3=
EXTT4=
EXTT5=
EXTT6=
EXTT7=
EXTT8=
EXTT9=
EXTT10=
EXTT11=
EXTT12=
EXTT13=
EXTT14=
EXTT15=
EXTT16=
EXTT17=
EXTT18=
EXTT19=
EXTT20=
EXTT21=
EXTT22=
EXTT23=
EXTT24=
EXTT25=
EXTT26=
EXTT27=
EXTT28=
PLAYORDER=
